<svg xmlns="http://www.w3.org/2000/svg" xmlns:xlink="http://www.w3.org/1999/xlink" width="1080" zoomAndPan="magnify" viewBox="0 0 810 809.999993" height="1080" preserveAspectRatio="xMidYMid meet" version="1.0"><defs><clipPath id="60e0ec085a"><path d="M 195 181.914062 L 600 181.914062 L 600 627 L 195 627 Z M 195 181.914062 " clip-rule="nonzero"/></clipPath></defs><g clip-path="url(#60e0ec085a)"><path fill="#000000" d="M 519.582031 181.679688 C 517.769531 181.632812 515.980469 181.828125 514.21875 182.261719 C 512.460938 182.695312 510.789062 183.355469 509.203125 184.242188 C 507.621094 185.125 506.183594 186.203125 504.890625 187.476562 C 503.597656 188.746094 502.496094 190.167969 501.585938 191.734375 L 259.140625 595.582031 C 258.773438 596.148438 258.4375 596.734375 258.128906 597.335938 C 257.820312 597.9375 257.542969 598.550781 257.296875 599.179688 C 257.050781 599.808594 256.835938 600.449219 256.652344 601.101562 C 256.46875 601.753906 256.320312 602.410156 256.203125 603.074219 C 256.089844 603.742188 256.007812 604.410156 255.957031 605.085938 C 255.910156 605.757812 255.894531 606.433594 255.914062 607.109375 C 255.929688 607.785156 255.984375 608.457031 256.070312 609.128906 C 256.15625 609.800781 256.277344 610.464844 256.429688 611.121094 C 256.582031 611.78125 256.769531 612.429688 256.988281 613.066406 C 257.207031 613.707031 257.457031 614.335938 257.738281 614.949219 C 258.019531 615.5625 258.328125 616.164062 258.671875 616.746094 C 259.011719 617.328125 259.382812 617.894531 259.78125 618.441406 C 260.179688 618.988281 260.605469 619.511719 261.054688 620.015625 C 261.503906 620.519531 261.980469 621 262.480469 621.453125 C 262.980469 621.910156 263.5 622.339844 264.042969 622.742188 C 264.585938 623.148438 265.144531 623.523438 265.726562 623.871094 C 266.304688 624.21875 266.902344 624.535156 267.515625 624.820312 C 268.125 625.109375 268.75 625.367188 269.386719 625.589844 C 270.027344 625.816406 270.671875 626.007812 271.332031 626.167969 C 271.988281 626.328125 272.652344 626.453125 273.320312 626.546875 C 273.992188 626.640625 274.664062 626.699219 275.339844 626.726562 C 276.015625 626.75 276.691406 626.742188 277.363281 626.703125 C 278.039062 626.660156 278.710938 626.582031 279.378906 626.476562 C 280.046875 626.367188 280.707031 626.222656 281.359375 626.046875 C 282.011719 625.871094 282.652344 625.664062 283.285156 625.425781 C 283.917969 625.183594 284.535156 624.914062 285.140625 624.609375 C 285.746094 624.308594 286.335938 623.976562 286.90625 623.617188 C 287.476562 623.253906 288.03125 622.867188 288.5625 622.449219 C 289.09375 622.035156 289.605469 621.589844 290.09375 621.125 C 290.582031 620.65625 291.042969 620.164062 291.484375 619.652344 C 291.921875 619.136719 292.335938 618.601562 292.71875 618.046875 C 293.105469 617.492188 293.460938 616.917969 293.789062 616.324219 L 536.234375 212.480469 C 537.167969 210.96875 537.890625 209.363281 538.398438 207.664062 C 538.910156 205.964844 539.191406 204.226562 539.242188 202.453125 C 539.292969 200.675781 539.113281 198.925781 538.703125 197.199219 C 538.292969 195.472656 537.664062 193.828125 536.820312 192.265625 C 535.976562 190.703125 534.945312 189.277344 533.722656 187.988281 C 532.503906 186.699219 531.136719 185.589844 529.621094 184.660156 C 528.109375 183.730469 526.5 183.011719 524.796875 182.507812 C 523.097656 182.003906 521.355469 181.726562 519.582031 181.679688 Z M 276.464844 202.109375 C 232.070312 202.109375 195.648438 238.507812 195.648438 282.878906 L 195.648438 323.261719 C 195.648438 367.632812 232.070312 404.03125 276.464844 404.03125 C 278.992188 403.988281 281.425781 403.488281 283.765625 402.53125 C 324.613281 398.632812 357.28125 365.050781 357.28125 323.261719 L 357.28125 282.878906 C 357.28125 241.058594 324.574219 207.425781 283.6875 203.566406 C 281.371094 202.632812 278.960938 202.148438 276.464844 202.109375 Z M 276.464844 242.492188 C 299.027344 242.492188 316.871094 260.328125 316.871094 282.878906 L 316.871094 323.261719 C 316.871094 345.808594 299.027344 363.644531 276.464844 363.644531 C 253.902344 363.644531 236.058594 345.808594 236.058594 323.261719 L 236.058594 282.878906 C 236.058594 260.328125 253.902344 242.492188 276.464844 242.492188 Z M 518.910156 404.03125 C 474.515625 404.03125 438.09375 440.429688 438.09375 484.800781 L 438.09375 525.183594 C 438.09375 567 470.800781 600.636719 511.6875 604.496094 C 514.007812 605.425781 516.414062 605.914062 518.910156 605.953125 C 521.4375 605.910156 523.871094 605.410156 526.210938 604.457031 C 567.054688 600.554688 599.726562 566.972656 599.726562 525.183594 L 599.726562 484.800781 C 599.726562 440.429688 563.304688 404.03125 518.910156 404.03125 Z M 518.910156 444.414062 C 541.472656 444.414062 559.316406 462.253906 559.316406 484.800781 L 559.316406 525.183594 C 559.316406 547.734375 541.472656 565.570312 518.910156 565.570312 C 496.347656 565.570312 478.503906 547.734375 478.503906 525.183594 L 478.503906 484.800781 C 478.503906 462.253906 496.347656 444.414062 518.910156 444.414062 Z M 518.910156 444.414062 " fill-opacity="1" fill-rule="nonzero"/></g></svg>