<svg xmlns="http://www.w3.org/2000/svg" xmlns:xlink="http://www.w3.org/1999/xlink" width="1080" zoomAndPan="magnify" viewBox="0 0 810 809.999993" height="1080" preserveAspectRatio="xMidYMid meet" version="1.0"><defs><clipPath id="3220022ed1"><path d="M 190.132812 302.777344 L 626.542969 302.777344 L 626.542969 510.527344 L 190.132812 510.527344 Z M 190.132812 302.777344 " clip-rule="nonzero"/></clipPath></defs><g clip-path="url(#3220022ed1)"><path fill="#ffffff" d="M 625.824219 405.003906 L 520.648438 303.4375 C 520.210938 303.007812 519.621094 302.769531 519.007812 302.769531 L 40.257812 302.769531 C 38.953125 302.769531 37.894531 303.828125 37.894531 305.132812 L 37.894531 508.273438 C 37.894531 509.566406 38.953125 510.632812 40.257812 510.632812 L 519.007812 510.632812 C 519.621094 510.632812 520.210938 510.386719 520.648438 509.964844 L 625.824219 408.398438 C 626.28125 407.953125 626.542969 407.339844 626.542969 406.699219 C 626.542969 406.0625 626.28125 405.449219 625.824219 405.003906 " fill-opacity="1" fill-rule="nonzero"/></g></svg>