<svg xmlns="http://www.w3.org/2000/svg" xmlns:xlink="http://www.w3.org/1999/xlink" width="1080" zoomAndPan="magnify" viewBox="0 0 810 809.999993" height="1080" preserveAspectRatio="xMidYMid meet" version="1.0"><defs><g/><clipPath id="38c1a8d182"><path d="M 182.320312 97.277344 L 627.820312 97.277344 L 627.820312 713 L 182.320312 713 Z M 182.320312 97.277344 " clip-rule="nonzero"/></clipPath></defs><g clip-path="url(#38c1a8d182)"><path fill="#ffffff" d="M 614.03125 249.203125 L 476.140625 111.285156 C 467.652344 102.796875 454.925781 97.492188 442.195312 97.492188 L 230.054688 97.492188 C 203.535156 97.492188 182.320312 118.710938 182.320312 145.234375 L 182.320312 665.074219 C 182.320312 691.59375 203.535156 712.8125 230.054688 712.8125 L 580.089844 712.8125 C 606.605469 712.8125 627.820312 691.59375 627.820312 665.074219 L 627.820312 282.089844 C 627.820312 269.359375 622.519531 257.6875 614.03125 249.203125 Z M 492.050781 252.382812 C 481.441406 252.382812 472.957031 243.898438 472.957031 233.289062 L 472.957031 135.6875 L 589.636719 252.382812 Z M 492.050781 252.382812 " fill-opacity="1" fill-rule="nonzero"/></g><g fill="#2dc288" fill-opacity="1"><g transform="translate(330.957986, 407.259276)"><g><path d="M 29.0625 -11.265625 C 29.0625 -7.609375 27.742188 -4.722656 25.109375 -2.609375 C 22.472656 -0.492188 18.804688 0.5625 14.109375 0.5625 C 9.773438 0.5625 5.941406 -0.253906 2.609375 -1.890625 L 2.609375 -9.890625 C 5.347656 -8.660156 7.664062 -7.796875 9.5625 -7.296875 C 11.457031 -6.796875 13.191406 -6.546875 14.765625 -6.546875 C 16.660156 -6.546875 18.109375 -6.90625 19.109375 -7.625 C 20.117188 -8.351562 20.625 -9.429688 20.625 -10.859375 C 20.625 -11.648438 20.398438 -12.351562 19.953125 -12.96875 C 19.515625 -13.59375 18.863281 -14.191406 18 -14.765625 C 17.144531 -15.335938 15.394531 -16.253906 12.75 -17.515625 C 10.257812 -18.679688 8.394531 -19.800781 7.15625 -20.875 C 5.914062 -21.945312 4.925781 -23.195312 4.1875 -24.625 C 3.445312 -26.050781 3.078125 -27.71875 3.078125 -29.625 C 3.078125 -33.21875 4.296875 -36.039062 6.734375 -38.09375 C 9.171875 -40.144531 12.535156 -41.171875 16.828125 -41.171875 C 18.929688 -41.171875 20.941406 -40.921875 22.859375 -40.421875 C 24.773438 -39.921875 26.78125 -39.21875 28.875 -38.3125 L 26.09375 -31.625 C 23.925781 -32.507812 22.132812 -33.128906 20.71875 -33.484375 C 19.300781 -33.835938 17.910156 -34.015625 16.546875 -34.015625 C 14.921875 -34.015625 13.671875 -33.632812 12.796875 -32.875 C 11.929688 -32.113281 11.5 -31.125 11.5 -29.90625 C 11.5 -29.144531 11.671875 -28.476562 12.015625 -27.90625 C 12.367188 -27.34375 12.929688 -26.796875 13.703125 -26.265625 C 14.472656 -25.742188 16.289062 -24.800781 19.15625 -23.4375 C 22.945312 -21.625 25.546875 -19.800781 26.953125 -17.96875 C 28.359375 -16.144531 29.0625 -13.910156 29.0625 -11.265625 Z M 29.0625 -11.265625 "/></g></g></g><g fill="#2dc288" fill-opacity="1"><g transform="translate(362.271482, 407.259276)"><g><path d="M 29.953125 0 L 27.015625 -9.65625 L 12.21875 -9.65625 L 9.265625 0 L 0 0 L 14.328125 -40.75 L 24.84375 -40.75 L 39.234375 0 Z M 24.953125 -16.875 C 22.234375 -25.632812 20.703125 -30.585938 20.359375 -31.734375 C 20.015625 -32.878906 19.769531 -33.785156 19.625 -34.453125 C 19.019531 -32.085938 17.269531 -26.226562 14.375 -16.875 Z M 24.953125 -16.875 "/></g></g></g><g fill="#2dc288" fill-opacity="1"><g transform="translate(401.496633, 407.259276)"><g><path d="M 41.125 0 L 30.171875 0 L 12.515625 -30.703125 L 12.265625 -30.703125 C 12.617188 -25.285156 12.796875 -21.414062 12.796875 -19.09375 L 12.796875 0 L 5.109375 0 L 5.109375 -40.59375 L 15.96875 -40.59375 L 33.59375 -10.1875 L 33.78125 -10.1875 C 33.507812 -15.46875 33.375 -19.195312 33.375 -21.375 L 33.375 -40.59375 L 41.125 -40.59375 Z M 41.125 0 "/></g></g></g><g fill="#2dc288" fill-opacity="1"><g transform="translate(447.717351, 407.259276)"><g><path d="M 29.0625 -11.265625 C 29.0625 -7.609375 27.742188 -4.722656 25.109375 -2.609375 C 22.472656 -0.492188 18.804688 0.5625 14.109375 0.5625 C 9.773438 0.5625 5.941406 -0.253906 2.609375 -1.890625 L 2.609375 -9.890625 C 5.347656 -8.660156 7.664062 -7.796875 9.5625 -7.296875 C 11.457031 -6.796875 13.191406 -6.546875 14.765625 -6.546875 C 16.660156 -6.546875 18.109375 -6.90625 19.109375 -7.625 C 20.117188 -8.351562 20.625 -9.429688 20.625 -10.859375 C 20.625 -11.648438 20.398438 -12.351562 19.953125 -12.96875 C 19.515625 -13.59375 18.863281 -14.191406 18 -14.765625 C 17.144531 -15.335938 15.394531 -16.253906 12.75 -17.515625 C 10.257812 -18.679688 8.394531 -19.800781 7.15625 -20.875 C 5.914062 -21.945312 4.925781 -23.195312 4.1875 -24.625 C 3.445312 -26.050781 3.078125 -27.71875 3.078125 -29.625 C 3.078125 -33.21875 4.296875 -36.039062 6.734375 -38.09375 C 9.171875 -40.144531 12.535156 -41.171875 16.828125 -41.171875 C 18.929688 -41.171875 20.941406 -40.921875 22.859375 -40.421875 C 24.773438 -39.921875 26.78125 -39.21875 28.875 -38.3125 L 26.09375 -31.625 C 23.925781 -32.507812 22.132812 -33.128906 20.71875 -33.484375 C 19.300781 -33.835938 17.910156 -34.015625 16.546875 -34.015625 C 14.921875 -34.015625 13.671875 -33.632812 12.796875 -32.875 C 11.929688 -32.113281 11.5 -31.125 11.5 -29.90625 C 11.5 -29.144531 11.671875 -28.476562 12.015625 -27.90625 C 12.367188 -27.34375 12.929688 -26.796875 13.703125 -26.265625 C 14.472656 -25.742188 16.289062 -24.800781 19.15625 -23.4375 C 22.945312 -21.625 25.546875 -19.800781 26.953125 -17.96875 C 28.359375 -16.144531 29.0625 -13.910156 29.0625 -11.265625 Z M 29.0625 -11.265625 "/></g></g></g><g fill="#2dc288" fill-opacity="1"><g transform="translate(223.431243, 460.568309)"><g><path d="M 22.34375 -34.015625 C 19.101562 -34.015625 16.59375 -32.796875 14.8125 -30.359375 C 13.039062 -27.921875 12.15625 -24.53125 12.15625 -20.1875 C 12.15625 -11.132812 15.550781 -6.609375 22.34375 -6.609375 C 25.195312 -6.609375 28.648438 -7.320312 32.703125 -8.75 L 32.703125 -1.53125 C 29.367188 -0.132812 25.648438 0.5625 21.546875 0.5625 C 15.640625 0.5625 11.117188 -1.226562 7.984375 -4.8125 C 4.859375 -8.394531 3.296875 -13.535156 3.296875 -20.234375 C 3.296875 -24.453125 4.0625 -28.148438 5.59375 -31.328125 C 7.132812 -34.503906 9.34375 -36.9375 12.21875 -38.625 C 15.101562 -40.320312 18.476562 -41.171875 22.34375 -41.171875 C 26.289062 -41.171875 30.253906 -40.21875 34.234375 -38.3125 L 31.453125 -31.3125 C 29.929688 -32.039062 28.40625 -32.671875 26.875 -33.203125 C 25.34375 -33.742188 23.832031 -34.015625 22.34375 -34.015625 Z M 22.34375 -34.015625 "/></g></g></g><g fill="#2dc288" fill-opacity="1"><g transform="translate(259.658293, 460.568309)"><g><path d="M 41.953125 -20.34375 C 41.953125 -13.625 40.285156 -8.457031 36.953125 -4.84375 C 33.617188 -1.238281 28.84375 0.5625 22.625 0.5625 C 16.40625 0.5625 11.628906 -1.238281 8.296875 -4.84375 C 4.960938 -8.457031 3.296875 -13.644531 3.296875 -20.40625 C 3.296875 -27.164062 4.96875 -32.328125 8.3125 -35.890625 C 11.65625 -39.453125 16.445312 -41.234375 22.6875 -41.234375 C 28.914062 -41.234375 33.679688 -39.4375 36.984375 -35.84375 C 40.296875 -32.25 41.953125 -27.082031 41.953125 -20.34375 Z M 12.328125 -20.34375 C 12.328125 -15.8125 13.1875 -12.394531 14.90625 -10.09375 C 16.625 -7.800781 19.195312 -6.65625 22.625 -6.65625 C 29.488281 -6.65625 32.921875 -11.21875 32.921875 -20.34375 C 32.921875 -29.488281 29.507812 -34.0625 22.6875 -34.0625 C 19.257812 -34.0625 16.675781 -32.910156 14.9375 -30.609375 C 13.195312 -28.304688 12.328125 -24.882812 12.328125 -20.34375 Z M 12.328125 -20.34375 "/></g></g></g><g fill="#2dc288" fill-opacity="1"><g transform="translate(304.907405, 460.568309)"><g><path d="M 41.125 0 L 30.171875 0 L 12.515625 -30.703125 L 12.265625 -30.703125 C 12.617188 -25.285156 12.796875 -21.414062 12.796875 -19.09375 L 12.796875 0 L 5.109375 0 L 5.109375 -40.59375 L 15.96875 -40.59375 L 33.59375 -10.1875 L 33.78125 -10.1875 C 33.507812 -15.46875 33.375 -19.195312 33.375 -21.375 L 33.375 -40.59375 L 41.125 -40.59375 Z M 41.125 0 "/></g></g></g><g fill="#2dc288" fill-opacity="1"><g transform="translate(351.128124, 460.568309)"><g><path d="M 38.78125 -20.6875 C 38.78125 -14 36.878906 -8.878906 33.078125 -5.328125 C 29.273438 -1.773438 23.785156 0 16.609375 0 L 5.109375 0 L 5.109375 -40.59375 L 17.859375 -40.59375 C 24.484375 -40.59375 29.625 -38.84375 33.28125 -35.34375 C 36.945312 -31.84375 38.78125 -26.957031 38.78125 -20.6875 Z M 29.84375 -20.46875 C 29.84375 -29.175781 25.992188 -33.53125 18.296875 -33.53125 L 13.71875 -33.53125 L 13.71875 -7.109375 L 17.40625 -7.109375 C 25.695312 -7.109375 29.84375 -11.5625 29.84375 -20.46875 Z M 29.84375 -20.46875 "/></g></g></g><g fill="#2dc288" fill-opacity="1"><g transform="translate(393.212575, 460.568309)"><g><path d="M 5.109375 0 L 5.109375 -40.59375 L 13.71875 -40.59375 L 13.71875 0 Z M 5.109375 0 "/></g></g></g><g fill="#2dc288" fill-opacity="1"><g transform="translate(412.033985, 460.568309)"><g><path d="M 20.765625 0 L 12.15625 0 L 12.15625 -33.421875 L 1.140625 -33.421875 L 1.140625 -40.59375 L 31.78125 -40.59375 L 31.78125 -33.421875 L 20.765625 -33.421875 Z M 20.765625 0 "/></g></g></g><g fill="#2dc288" fill-opacity="1"><g transform="translate(444.957572, 460.568309)"><g><path d="M 5.109375 0 L 5.109375 -40.59375 L 13.71875 -40.59375 L 13.71875 0 Z M 5.109375 0 "/></g></g></g><g fill="#2dc288" fill-opacity="1"><g transform="translate(463.778982, 460.568309)"><g><path d="M 41.953125 -20.34375 C 41.953125 -13.625 40.285156 -8.457031 36.953125 -4.84375 C 33.617188 -1.238281 28.84375 0.5625 22.625 0.5625 C 16.40625 0.5625 11.628906 -1.238281 8.296875 -4.84375 C 4.960938 -8.457031 3.296875 -13.644531 3.296875 -20.40625 C 3.296875 -27.164062 4.96875 -32.328125 8.3125 -35.890625 C 11.65625 -39.453125 16.445312 -41.234375 22.6875 -41.234375 C 28.914062 -41.234375 33.679688 -39.4375 36.984375 -35.84375 C 40.296875 -32.25 41.953125 -27.082031 41.953125 -20.34375 Z M 12.328125 -20.34375 C 12.328125 -15.8125 13.1875 -12.394531 14.90625 -10.09375 C 16.625 -7.800781 19.195312 -6.65625 22.625 -6.65625 C 29.488281 -6.65625 32.921875 -11.21875 32.921875 -20.34375 C 32.921875 -29.488281 29.507812 -34.0625 22.6875 -34.0625 C 19.257812 -34.0625 16.675781 -32.910156 14.9375 -30.609375 C 13.195312 -28.304688 12.328125 -24.882812 12.328125 -20.34375 Z M 12.328125 -20.34375 "/></g></g></g><g fill="#2dc288" fill-opacity="1"><g transform="translate(509.028094, 460.568309)"><g><path d="M 41.125 0 L 30.171875 0 L 12.515625 -30.703125 L 12.265625 -30.703125 C 12.617188 -25.285156 12.796875 -21.414062 12.796875 -19.09375 L 12.796875 0 L 5.109375 0 L 5.109375 -40.59375 L 15.96875 -40.59375 L 33.59375 -10.1875 L 33.78125 -10.1875 C 33.507812 -15.46875 33.375 -19.195312 33.375 -21.375 L 33.375 -40.59375 L 41.125 -40.59375 Z M 41.125 0 "/></g></g></g><g fill="#2dc288" fill-opacity="1"><g transform="translate(555.248799, 460.568309)"><g><path d="M 29.0625 -11.265625 C 29.0625 -7.609375 27.742188 -4.722656 25.109375 -2.609375 C 22.472656 -0.492188 18.804688 0.5625 14.109375 0.5625 C 9.773438 0.5625 5.941406 -0.253906 2.609375 -1.890625 L 2.609375 -9.890625 C 5.347656 -8.660156 7.664062 -7.796875 9.5625 -7.296875 C 11.457031 -6.796875 13.191406 -6.546875 14.765625 -6.546875 C 16.660156 -6.546875 18.109375 -6.90625 19.109375 -7.625 C 20.117188 -8.351562 20.625 -9.429688 20.625 -10.859375 C 20.625 -11.648438 20.398438 -12.351562 19.953125 -12.96875 C 19.515625 -13.59375 18.863281 -14.191406 18 -14.765625 C 17.144531 -15.335938 15.394531 -16.253906 12.75 -17.515625 C 10.257812 -18.679688 8.394531 -19.800781 7.15625 -20.875 C 5.914062 -21.945312 4.925781 -23.195312 4.1875 -24.625 C 3.445312 -26.050781 3.078125 -27.71875 3.078125 -29.625 C 3.078125 -33.21875 4.296875 -36.039062 6.734375 -38.09375 C 9.171875 -40.144531 12.535156 -41.171875 16.828125 -41.171875 C 18.929688 -41.171875 20.941406 -40.921875 22.859375 -40.421875 C 24.773438 -39.921875 26.78125 -39.21875 28.875 -38.3125 L 26.09375 -31.625 C 23.925781 -32.507812 22.132812 -33.128906 20.71875 -33.484375 C 19.300781 -33.835938 17.910156 -34.015625 16.546875 -34.015625 C 14.921875 -34.015625 13.671875 -33.632812 12.796875 -32.875 C 11.929688 -32.113281 11.5 -31.125 11.5 -29.90625 C 11.5 -29.144531 11.671875 -28.476562 12.015625 -27.90625 C 12.367188 -27.34375 12.929688 -26.796875 13.703125 -26.265625 C 14.472656 -25.742188 16.289062 -24.800781 19.15625 -23.4375 C 22.945312 -21.625 25.546875 -19.800781 26.953125 -17.96875 C 28.359375 -16.144531 29.0625 -13.910156 29.0625 -11.265625 Z M 29.0625 -11.265625 "/></g></g></g></svg>