<svg xmlns="http://www.w3.org/2000/svg" xmlns:xlink="http://www.w3.org/1999/xlink" width="120" zoomAndPan="magnify" viewBox="0 0 90 89.999999" height="120" preserveAspectRatio="xMidYMid meet" version="1.0"><defs><clipPath id="6799f81513"><path d="M 16.820312 48 L 37 48 L 37 56 L 16.820312 56 Z M 16.820312 48 " clip-rule="nonzero"/></clipPath><clipPath id="2180b99409"><path d="M 16.820312 42 L 37 42 L 37 50 L 16.820312 50 Z M 16.820312 42 " clip-rule="nonzero"/></clipPath><clipPath id="9cb3e6ed29"><path d="M 16.820312 33 L 37 33 L 37 43 L 16.820312 43 Z M 16.820312 33 " clip-rule="nonzero"/></clipPath><clipPath id="caa18829d3"><path d="M 39 53 L 73.070312 53 L 73.070312 63.65625 L 39 63.65625 Z M 39 53 " clip-rule="nonzero"/></clipPath><clipPath id="4707af182e"><path d="M 39 45 L 73.070312 45 L 73.070312 56 L 39 56 Z M 39 45 " clip-rule="nonzero"/></clipPath><clipPath id="cabae3fc3b"><path d="M 39 36 L 73.070312 36 L 73.070312 47 L 39 47 Z M 39 36 " clip-rule="nonzero"/></clipPath><clipPath id="f7496b7998"><path d="M 39 26.15625 L 73.070312 26.15625 L 73.070312 39 L 39 39 Z M 39 26.15625 " clip-rule="nonzero"/></clipPath></defs><g clip-path="url(#6799f81513)"><path fill="#ffffff" d="M 26.144531 50.65625 C 26.222656 50.78125 26.269531 50.929688 26.269531 51.085938 L 26.269531 53.28125 C 26.269531 53.738281 25.898438 54.105469 25.445312 54.105469 C 24.988281 54.105469 24.617188 53.738281 24.617188 53.28125 L 24.617188 51.085938 C 24.617188 50.863281 24.707031 50.664062 24.851562 50.515625 C 24.125 50.421875 23.4375 50.308594 22.777344 50.183594 C 22.804688 50.261719 22.820312 50.347656 22.820312 50.433594 L 22.820312 52.628906 C 22.820312 53.082031 22.453125 53.453125 21.996094 53.453125 C 21.539062 53.453125 21.167969 53.082031 21.167969 52.628906 L 21.167969 50.433594 C 21.167969 50.222656 21.25 50.03125 21.382812 49.886719 C 20.613281 49.703125 19.902344 49.507812 19.257812 49.304688 C 19.261719 49.320312 19.265625 49.339844 19.265625 49.355469 L 19.265625 51.550781 C 19.265625 52.007812 18.894531 52.375 18.4375 52.375 C 17.980469 52.375 17.613281 52.007812 17.613281 51.550781 L 17.613281 49.355469 C 17.613281 49.148438 17.691406 48.960938 17.820312 48.8125 C 17.457031 48.679688 17.128906 48.546875 16.832031 48.421875 L 16.832031 51.097656 C 16.832031 52.851562 21.683594 55.394531 29.289062 55.394531 C 32.089844 55.394531 34.515625 55.046875 36.46875 54.523438 L 36.46875 50.011719 C 34.394531 50.460938 31.945312 50.789062 29.1875 50.789062 C 28.125 50.789062 27.109375 50.742188 26.144531 50.65625 " fill-opacity="1" fill-rule="nonzero"/></g><g clip-path="url(#2180b99409)"><path fill="#ffffff" d="M 26.269531 44.976562 L 26.269531 47.15625 C 26.269531 47.613281 25.898438 47.980469 25.445312 47.980469 C 24.988281 47.980469 24.617188 47.613281 24.617188 47.15625 L 24.617188 44.960938 C 24.617188 44.902344 24.625 44.84375 24.636719 44.789062 C 24.019531 44.699219 23.414062 44.59375 22.820312 44.472656 L 22.820312 46.503906 C 22.820312 46.957031 22.453125 47.328125 21.996094 47.328125 C 21.539062 47.328125 21.167969 46.957031 21.167969 46.503906 L 21.167969 44.308594 C 21.167969 44.230469 21.183594 44.15625 21.203125 44.082031 C 20.523438 43.894531 19.875 43.679688 19.265625 43.441406 L 19.265625 45.425781 C 19.265625 45.882812 18.894531 46.25 18.4375 46.25 C 17.980469 46.25 17.613281 45.882812 17.613281 45.425781 L 17.613281 43.230469 C 17.613281 43.054688 17.667969 42.894531 17.761719 42.757812 C 17.433594 42.585938 17.121094 42.402344 16.832031 42.207031 L 16.832031 46.878906 C 18.40625 47.640625 22.898438 49.496094 29.1875 49.496094 C 31.984375 49.496094 34.445312 49.125 36.46875 48.652344 L 36.46875 44.3125 C 34.230469 44.839844 31.734375 45.113281 29.289062 45.113281 C 28.28125 45.113281 27.269531 45.066406 26.269531 44.976562 " fill-opacity="1" fill-rule="nonzero"/></g><g clip-path="url(#9cb3e6ed29)"><path fill="#ffffff" d="M 35.757812 34.691406 C 35.625 34.660156 35.496094 34.628906 35.363281 34.601562 C 35.144531 34.554688 34.917969 34.511719 34.6875 34.46875 C 34.578125 34.449219 34.476562 34.425781 34.367188 34.410156 C 34.027344 34.351562 33.675781 34.296875 33.316406 34.25 C 33.230469 34.238281 33.136719 34.230469 33.050781 34.21875 C 32.765625 34.183594 32.472656 34.152344 32.175781 34.125 C 32.046875 34.113281 31.917969 34.105469 31.785156 34.09375 C 31.507812 34.074219 31.21875 34.054688 30.929688 34.039062 C 30.804688 34.035156 30.679688 34.027344 30.554688 34.023438 C 30.140625 34.007812 29.71875 33.996094 29.289062 33.996094 C 28.855469 33.996094 28.4375 34.007812 28.023438 34.023438 C 27.894531 34.027344 27.769531 34.035156 27.644531 34.039062 C 27.355469 34.054688 27.070312 34.074219 26.789062 34.09375 C 26.660156 34.105469 26.527344 34.113281 26.398438 34.125 C 26.101562 34.152344 25.8125 34.183594 25.523438 34.21875 C 25.4375 34.230469 25.34375 34.238281 25.257812 34.25 C 24.898438 34.296875 24.550781 34.351562 24.210938 34.410156 C 24.101562 34.425781 23.996094 34.449219 23.886719 34.46875 C 23.660156 34.511719 23.433594 34.554688 23.210938 34.601562 C 23.078125 34.628906 22.949219 34.660156 22.820312 34.691406 C 22.632812 34.734375 22.453125 34.777344 22.273438 34.824219 C 22.140625 34.859375 22.011719 34.894531 21.886719 34.929688 C 21.703125 34.980469 21.527344 35.035156 21.355469 35.089844 C 21.125 35.160156 20.90625 35.234375 20.691406 35.308594 C 20.585938 35.347656 20.476562 35.386719 20.371094 35.425781 C 20.21875 35.484375 20.074219 35.542969 19.929688 35.605469 C 19.855469 35.636719 19.78125 35.667969 19.707031 35.699219 C 19.554688 35.765625 19.40625 35.835938 19.265625 35.902344 C 19.234375 35.921875 19.203125 35.9375 19.171875 35.953125 C 18.667969 36.207031 18.242188 36.46875 17.898438 36.734375 C 17.894531 36.738281 17.890625 36.742188 17.886719 36.742188 C 17.765625 36.835938 17.65625 36.929688 17.558594 37.023438 C 17.089844 37.457031 16.832031 37.894531 16.832031 38.289062 C 16.832031 38.683594 17.089844 39.117188 17.558594 39.554688 C 17.65625 39.648438 17.765625 39.742188 17.886719 39.832031 C 17.890625 39.835938 17.890625 39.835938 17.894531 39.839844 C 18.242188 40.105469 18.667969 40.371094 19.171875 40.625 C 19.203125 40.640625 19.234375 40.65625 19.265625 40.671875 C 19.40625 40.742188 19.554688 40.808594 19.707031 40.875 C 19.78125 40.910156 19.855469 40.941406 19.929688 40.972656 C 20.074219 41.03125 20.21875 41.09375 20.371094 41.152344 C 20.476562 41.191406 20.582031 41.226562 20.691406 41.265625 C 20.90625 41.34375 21.125 41.417969 21.359375 41.488281 C 21.53125 41.542969 21.703125 41.597656 21.882812 41.648438 C 22.011719 41.683594 22.140625 41.71875 22.273438 41.75 C 22.453125 41.796875 22.632812 41.84375 22.820312 41.886719 C 22.949219 41.917969 23.078125 41.945312 23.210938 41.976562 C 23.433594 42.023438 23.660156 42.066406 23.890625 42.109375 C 23.996094 42.128906 24.101562 42.148438 24.210938 42.167969 C 24.546875 42.226562 24.898438 42.28125 25.257812 42.328125 C 25.34375 42.339844 25.4375 42.347656 25.523438 42.359375 C 25.8125 42.394531 26.101562 42.425781 26.398438 42.453125 C 26.527344 42.464844 26.65625 42.472656 26.789062 42.484375 C 27.070312 42.503906 27.355469 42.523438 27.644531 42.539062 C 27.769531 42.542969 27.894531 42.550781 28.023438 42.554688 C 28.4375 42.570312 28.855469 42.582031 29.289062 42.582031 C 29.71875 42.582031 30.140625 42.570312 30.554688 42.554688 C 30.679688 42.550781 30.804688 42.542969 30.929688 42.539062 C 31.222656 42.523438 31.507812 42.503906 31.785156 42.484375 C 31.917969 42.472656 32.046875 42.464844 32.175781 42.453125 C 32.472656 42.425781 32.765625 42.394531 33.050781 42.359375 C 33.136719 42.347656 33.230469 42.339844 33.316406 42.328125 C 33.675781 42.28125 34.027344 42.226562 34.367188 42.167969 C 34.476562 42.148438 34.578125 42.128906 34.6875 42.109375 C 34.917969 42.066406 35.144531 42.023438 35.363281 41.976562 C 35.496094 41.945312 35.628906 41.917969 35.757812 41.886719 C 35.941406 41.84375 36.125 41.796875 36.300781 41.75 C 36.359375 41.738281 36.414062 41.722656 36.46875 41.707031 L 36.46875 34.867188 C 36.414062 34.855469 36.359375 34.839844 36.300781 34.824219 C 36.125 34.777344 35.941406 34.734375 35.757812 34.691406 " fill-opacity="1" fill-rule="nonzero"/></g><g clip-path="url(#caa18829d3)"><path fill="#ffffff" d="M 49.550781 60.96875 C 49.550781 61.46875 49.144531 61.875 48.640625 61.875 C 48.140625 61.875 47.730469 61.46875 47.730469 60.96875 L 47.730469 58.308594 C 47.730469 57.808594 48.140625 57.398438 48.640625 57.398438 C 49.144531 57.398438 49.550781 57.808594 49.550781 58.308594 Z M 46.101562 60.175781 C 46.101562 60.675781 45.695312 61.082031 45.195312 61.082031 C 44.691406 61.082031 44.285156 60.675781 44.285156 60.175781 L 44.285156 57.511719 C 44.285156 57.011719 44.691406 56.605469 45.195312 56.605469 C 45.695312 56.605469 46.101562 57.011719 46.101562 57.511719 Z M 42.542969 58.871094 C 42.542969 59.371094 42.136719 59.777344 41.636719 59.777344 C 41.132812 59.777344 40.726562 59.371094 40.726562 58.871094 L 40.726562 56.210938 C 40.726562 55.710938 41.132812 55.304688 41.636719 55.304688 C 42.136719 55.304688 42.542969 55.710938 42.542969 56.210938 Z M 39.007812 53.984375 L 39.007812 57.519531 C 39.007812 60.425781 46.003906 63.667969 56.042969 63.667969 C 66.082031 63.667969 73.078125 60.425781 73.078125 57.519531 L 73.078125 53.953125 C 70.144531 55.222656 64.003906 57.359375 55.910156 57.359375 C 47.839844 57.359375 41.882812 55.261719 39.007812 53.984375 " fill-opacity="1" fill-rule="nonzero"/></g><g clip-path="url(#4707af182e)"><path fill="#ffffff" d="M 49.550781 53.019531 C 49.550781 53.519531 49.144531 53.925781 48.640625 53.925781 C 48.140625 53.925781 47.730469 53.519531 47.730469 53.019531 L 47.730469 50.359375 C 47.730469 49.859375 48.140625 49.453125 48.640625 49.453125 C 49.144531 49.453125 49.550781 49.859375 49.550781 50.359375 Z M 46.101562 52.226562 C 46.101562 52.726562 45.695312 53.132812 45.195312 53.132812 C 44.691406 53.132812 44.285156 52.726562 44.285156 52.226562 L 44.285156 49.566406 C 44.285156 49.066406 44.691406 48.660156 45.195312 48.660156 C 45.695312 48.660156 46.101562 49.066406 46.101562 49.566406 Z M 42.542969 50.921875 C 42.542969 51.425781 42.136719 51.832031 41.636719 51.832031 C 41.132812 51.832031 40.726562 51.425781 40.726562 50.921875 L 40.726562 48.261719 C 40.726562 47.761719 41.132812 47.355469 41.636719 47.355469 C 42.136719 47.355469 42.542969 47.761719 42.542969 48.261719 Z M 39.007812 45.917969 L 39.007812 51.40625 C 40.917969 52.359375 47.125 55.058594 55.910156 55.058594 C 64.699219 55.058594 71.101562 52.347656 73.078125 51.394531 L 73.078125 45.890625 C 70.144531 47.15625 64.003906 49.292969 55.910156 49.292969 C 47.839844 49.292969 41.882812 47.195312 39.007812 45.917969 " fill-opacity="1" fill-rule="nonzero"/></g><g clip-path="url(#cabae3fc3b)"><path fill="#ffffff" d="M 49.550781 44.785156 C 49.550781 45.285156 49.144531 45.691406 48.640625 45.691406 C 48.140625 45.691406 47.730469 45.285156 47.730469 44.785156 L 47.730469 42.125 C 47.730469 41.625 48.140625 41.21875 48.640625 41.21875 C 49.144531 41.21875 49.550781 41.625 49.550781 42.125 Z M 46.101562 43.992188 C 46.101562 44.492188 45.695312 44.898438 45.195312 44.898438 C 44.691406 44.898438 44.285156 44.492188 44.285156 43.992188 L 44.285156 41.332031 C 44.285156 40.832031 44.691406 40.425781 45.195312 40.425781 C 45.695312 40.425781 46.101562 40.832031 46.101562 41.332031 Z M 42.542969 42.6875 C 42.542969 43.1875 42.136719 43.59375 41.636719 43.59375 C 41.132812 43.59375 40.726562 43.1875 40.726562 42.6875 L 40.726562 40.027344 C 40.726562 39.527344 41.132812 39.121094 41.636719 39.121094 C 42.136719 39.121094 42.542969 39.527344 42.542969 40.027344 Z M 39.007812 36.703125 L 39.007812 43.113281 C 40.917969 44.0625 47.125 46.761719 55.910156 46.761719 C 64.699219 46.761719 71.101562 44.054688 73.078125 43.101562 L 73.078125 36.703125 C 69.773438 39.300781 63.527344 40.980469 56.042969 40.980469 C 48.558594 40.980469 42.3125 39.300781 39.007812 36.703125 " fill-opacity="1" fill-rule="nonzero"/></g><path fill="#ffffff" d="M 61.496094 33.542969 C 61.722656 33.359375 61.800781 33.222656 61.828125 33.140625 C 61.863281 33.035156 61.867188 32.941406 61.835938 32.871094 C 61.800781 32.777344 61.757812 32.703125 61.703125 32.652344 C 61.289062 32.234375 60.78125 31.96875 60.195312 31.855469 C 59.695312 31.761719 59.09375 31.75 58.40625 31.824219 L 60.691406 33.992188 C 61.046875 33.839844 61.320312 33.6875 61.496094 33.542969 " fill-opacity="1" fill-rule="nonzero"/><g clip-path="url(#f7496b7998)"><path fill="#ffffff" d="M 49.800781 29.628906 C 50.003906 29.316406 50.324219 29.003906 50.761719 28.707031 C 51.109375 28.464844 51.523438 28.242188 52 28.042969 L 51.585938 27.648438 C 51.339844 27.421875 51.378906 27.1875 51.5 27.039062 C 51.605469 26.910156 51.761719 26.8125 51.980469 26.746094 C 52.160156 26.691406 52.363281 26.667969 52.605469 26.675781 C 52.859375 26.6875 53.078125 26.769531 53.238281 26.917969 L 53.863281 27.515625 C 54.894531 27.308594 55.886719 27.273438 56.808594 27.410156 C 57.789062 27.550781 58.597656 27.90625 59.214844 28.460938 L 59.257812 28.511719 C 59.371094 28.703125 59.347656 28.855469 59.3125 28.949219 C 59.253906 29.105469 59.109375 29.21875 58.871094 29.296875 C 58.46875 29.425781 58.125 29.386719 57.847656 29.175781 C 57.6875 29.058594 57.496094 28.945312 57.28125 28.839844 C 57.054688 28.730469 56.792969 28.636719 56.503906 28.570312 C 56.203125 28.5 55.871094 28.457031 55.519531 28.4375 C 55.304688 28.425781 55.082031 28.429688 54.847656 28.445312 L 57.402344 30.871094 C 58.265625 30.722656 58.984375 30.65625 59.59375 30.671875 C 60.242188 30.6875 60.800781 30.761719 61.257812 30.882812 C 61.730469 31.011719 62.121094 31.183594 62.417969 31.394531 C 62.71875 31.605469 62.957031 31.808594 63.15625 32.011719 C 63.550781 32.460938 63.617188 32.996094 63.347656 33.574219 C 63.210938 33.847656 62.96875 34.097656 62.601562 34.339844 C 62.332031 34.519531 62.003906 34.691406 61.605469 34.859375 L 62.074219 35.304688 C 62.324219 35.542969 62.269531 35.785156 62.132812 35.933594 C 62.019531 36.058594 61.859375 36.152344 61.65625 36.214844 C 61.5 36.265625 61.339844 36.289062 61.167969 36.289062 C 61.125 36.289062 61.078125 36.285156 61.03125 36.28125 C 60.78125 36.265625 60.578125 36.179688 60.421875 36.03125 L 59.804688 35.445312 C 59.214844 35.597656 58.609375 35.714844 57.996094 35.796875 C 57.386719 35.875 56.78125 35.910156 56.1875 35.894531 C 55.601562 35.875 55.070312 35.804688 54.5625 35.675781 C 54.070312 35.550781 53.617188 35.359375 53.226562 35.109375 C 52.851562 34.917969 52.910156 34.683594 52.953125 34.589844 C 53.011719 34.445312 53.179688 34.339844 53.5 34.257812 C 53.964844 34.140625 54.3125 34.148438 54.542969 34.347656 C 54.972656 34.578125 55.617188 34.738281 56.421875 34.800781 C 57.140625 34.851562 57.964844 34.769531 58.871094 34.558594 L 56.40625 32.222656 C 55.101562 32.527344 53.917969 32.632812 52.886719 32.535156 C 51.808594 32.4375 50.90625 32.132812 50.210938 31.628906 C 49.835938 31.34375 49.621094 31.023438 49.558594 30.671875 C 49.492188 30.328125 49.574219 29.976562 49.800781 29.628906 Z M 41.507812 35.378906 C 41.515625 35.386719 41.527344 35.390625 41.535156 35.398438 C 42.242188 35.820312 43.085938 36.214844 44.050781 36.574219 C 44.082031 36.585938 44.113281 36.597656 44.144531 36.609375 C 44.449219 36.722656 44.769531 36.832031 45.097656 36.9375 C 45.132812 36.945312 45.167969 36.957031 45.199219 36.96875 C 45.875 37.179688 46.59375 37.371094 47.359375 37.546875 C 47.40625 37.554688 47.453125 37.566406 47.503906 37.578125 C 47.867188 37.660156 48.242188 37.734375 48.628906 37.804688 C 48.691406 37.816406 48.757812 37.828125 48.824219 37.839844 C 49.214844 37.910156 49.609375 37.976562 50.015625 38.035156 C 50.0625 38.039062 50.105469 38.046875 50.148438 38.050781 C 50.546875 38.105469 50.953125 38.160156 51.367188 38.203125 C 51.410156 38.207031 51.457031 38.214844 51.5 38.21875 C 51.921875 38.261719 52.355469 38.300781 52.796875 38.332031 C 52.878906 38.335938 52.960938 38.34375 53.046875 38.347656 C 53.480469 38.378906 53.921875 38.402344 54.375 38.417969 C 54.449219 38.421875 54.527344 38.421875 54.601562 38.425781 C 55.078125 38.441406 55.554688 38.449219 56.042969 38.449219 C 56.53125 38.449219 57.011719 38.441406 57.484375 38.425781 C 57.5625 38.421875 57.640625 38.421875 57.714844 38.417969 C 58.164062 38.402344 58.605469 38.378906 59.042969 38.347656 C 59.125 38.34375 59.210938 38.335938 59.292969 38.332031 C 59.730469 38.300781 60.164062 38.261719 60.585938 38.21875 C 60.632812 38.214844 60.675781 38.207031 60.71875 38.203125 C 61.132812 38.160156 61.539062 38.105469 61.9375 38.050781 C 61.980469 38.046875 62.027344 38.039062 62.070312 38.035156 C 62.476562 37.976562 62.875 37.910156 63.261719 37.839844 C 63.328125 37.828125 63.394531 37.816406 63.460938 37.804688 C 63.84375 37.734375 64.21875 37.660156 64.585938 37.578125 C 64.632812 37.566406 64.679688 37.554688 64.726562 37.546875 C 65.492188 37.371094 66.210938 37.179688 66.886719 36.96875 C 66.917969 36.957031 66.953125 36.945312 66.984375 36.9375 C 67.316406 36.832031 67.636719 36.722656 67.941406 36.609375 C 67.972656 36.597656 68.003906 36.585938 68.03125 36.574219 C 68.996094 36.214844 69.839844 35.820312 70.550781 35.398438 C 70.558594 35.390625 70.570312 35.386719 70.578125 35.378906 C 71.535156 34.808594 72.238281 34.191406 72.648438 33.566406 C 72.925781 33.148438 73.078125 32.722656 73.078125 32.304688 C 73.078125 31.882812 72.925781 31.457031 72.648438 31.039062 C 72.238281 30.414062 71.535156 29.796875 70.578125 29.226562 C 70.566406 29.21875 70.558594 29.214844 70.546875 29.207031 C 69.839844 28.789062 68.996094 28.390625 68.03125 28.03125 C 68 28.019531 67.972656 28.011719 67.941406 28 C 67.632812 27.886719 67.316406 27.777344 66.984375 27.671875 C 66.953125 27.660156 66.917969 27.652344 66.882812 27.640625 C 66.210938 27.429688 65.492188 27.238281 64.726562 27.0625 C 64.679688 27.054688 64.632812 27.042969 64.582031 27.03125 C 64.21875 26.949219 63.84375 26.875 63.460938 26.804688 C 63.394531 26.792969 63.328125 26.78125 63.261719 26.769531 C 62.871094 26.699219 62.476562 26.632812 62.070312 26.574219 C 62.027344 26.570312 61.980469 26.5625 61.9375 26.558594 C 61.539062 26.5 61.132812 26.453125 60.71875 26.40625 C 60.671875 26.402344 60.632812 26.398438 60.589844 26.390625 C 60.164062 26.347656 59.730469 26.308594 59.292969 26.277344 C 59.210938 26.273438 59.125 26.265625 59.042969 26.261719 C 58.605469 26.230469 58.164062 26.207031 57.714844 26.191406 C 57.636719 26.1875 57.5625 26.1875 57.484375 26.183594 C 57.011719 26.171875 56.53125 26.160156 56.042969 26.160156 C 55.554688 26.160156 55.078125 26.171875 54.605469 26.183594 C 54.527344 26.1875 54.449219 26.1875 54.375 26.191406 C 53.921875 26.207031 53.480469 26.230469 53.046875 26.261719 C 52.960938 26.265625 52.878906 26.273438 52.796875 26.277344 C 52.355469 26.308594 51.921875 26.347656 51.5 26.390625 C 51.457031 26.398438 51.414062 26.402344 51.371094 26.40625 C 50.957031 26.453125 50.546875 26.5 50.148438 26.558594 C 50.105469 26.5625 50.0625 26.570312 50.019531 26.574219 C 49.609375 26.632812 49.214844 26.699219 48.824219 26.769531 C 48.757812 26.78125 48.691406 26.792969 48.625 26.804688 C 48.242188 26.875 47.867188 26.949219 47.503906 27.03125 C 47.453125 27.042969 47.40625 27.054688 47.359375 27.0625 C 46.597656 27.238281 45.875 27.429688 45.203125 27.640625 C 45.167969 27.652344 45.132812 27.660156 45.101562 27.671875 C 44.769531 27.777344 44.453125 27.886719 44.144531 28 C 44.113281 28.011719 44.082031 28.019531 44.050781 28.03125 C 43.085938 28.390625 42.242188 28.789062 41.535156 29.207031 C 41.527344 29.214844 41.515625 29.21875 41.507812 29.226562 C 39.902344 30.1875 39.007812 31.265625 39.007812 32.304688 C 39.007812 33.339844 39.902344 34.421875 41.507812 35.378906 " fill-opacity="1" fill-rule="nonzero"/></g><path fill="#ffffff" d="M 51.675781 30.890625 C 51.808594 30.984375 51.980469 31.082031 52.199219 31.183594 C 52.417969 31.273438 52.6875 31.34375 52.996094 31.386719 C 53.324219 31.433594 53.714844 31.449219 54.183594 31.429688 C 54.550781 31.414062 54.964844 31.367188 55.417969 31.289062 L 52.90625 28.90625 C 52.519531 29.050781 52.199219 29.207031 51.957031 29.371094 C 51.703125 29.542969 51.515625 29.71875 51.410156 29.902344 C 51.320312 30.074219 51.289062 30.238281 51.328125 30.398438 C 51.371094 30.570312 51.488281 30.738281 51.675781 30.890625 " fill-opacity="1" fill-rule="nonzero"/></svg>