<svg xmlns="http://www.w3.org/2000/svg" xmlns:xlink="http://www.w3.org/1999/xlink" width="120" zoomAndPan="magnify" viewBox="0 0 90 89.999999" height="120" preserveAspectRatio="xMidYMid meet" version="1.0"><defs><g/><clipPath id="c7c850c8a5"><path d="M 22.332031 27.308594 L 67.332031 27.308594 L 67.332031 48.308594 L 22.332031 48.308594 Z M 22.332031 27.308594 " clip-rule="nonzero"/></clipPath></defs><g clip-path="url(#c7c850c8a5)"><path fill="#ffffff" d="M 26.1875 27.308594 L 55.199219 27.308594 C 55.925781 27.308594 56.636719 27.582031 57.238281 28.09375 L 66.53125 35.996094 C 67.644531 36.941406 67.644531 38.675781 66.53125 39.621094 L 57.238281 47.519531 C 56.636719 48.03125 55.925781 48.304688 55.199219 48.304688 L 26.1875 48.304688 C 24.167969 48.304688 22.53125 46.230469 22.53125 43.671875 L 22.53125 31.941406 C 22.53125 29.382812 24.167969 27.308594 26.1875 27.308594 Z M 26.1875 27.308594 " fill-opacity="1" fill-rule="nonzero"/></g><g fill="#ffffff" fill-opacity="1"><g transform="translate(30.448099, 55.189986)"><g><path d="M 2.46875 0 L 1.5625 0 L 1.5625 -2.46875 L 1.578125 -2.875 L 1.59375 -3.3125 C 1.4375 -3.164062 1.332031 -3.066406 1.28125 -3.015625 L 0.78125 -2.625 L 0.359375 -3.171875 L 1.71875 -4.265625 L 2.46875 -4.265625 Z M 2.46875 0 "/></g></g><g transform="translate(33.85557, 55.189986)"><g/></g><g transform="translate(35.406275, 55.189986)"><g><path d="M 3.046875 -1.1875 C 3.046875 -0.800781 2.90625 -0.492188 2.625 -0.265625 C 2.351562 -0.046875 1.972656 0.0625 1.484375 0.0625 C 1.023438 0.0625 0.625 -0.0234375 0.28125 -0.203125 L 0.28125 -1.03125 C 0.5625 -0.90625 0.800781 -0.816406 1 -0.765625 C 1.195312 -0.710938 1.378906 -0.6875 1.546875 -0.6875 C 1.742188 -0.6875 1.894531 -0.722656 2 -0.796875 C 2.113281 -0.878906 2.171875 -0.992188 2.171875 -1.140625 C 2.171875 -1.222656 2.144531 -1.296875 2.09375 -1.359375 C 2.050781 -1.421875 1.984375 -1.484375 1.890625 -1.546875 C 1.796875 -1.609375 1.613281 -1.707031 1.34375 -1.84375 C 1.082031 -1.957031 0.882812 -2.070312 0.75 -2.1875 C 0.625 -2.300781 0.519531 -2.429688 0.4375 -2.578125 C 0.363281 -2.734375 0.328125 -2.910156 0.328125 -3.109375 C 0.328125 -3.484375 0.453125 -3.78125 0.703125 -4 C 0.960938 -4.21875 1.316406 -4.328125 1.765625 -4.328125 C 1.984375 -4.328125 2.191406 -4.300781 2.390625 -4.25 C 2.597656 -4.195312 2.8125 -4.117188 3.03125 -4.015625 L 2.734375 -3.3125 C 2.515625 -3.40625 2.328125 -3.46875 2.171875 -3.5 C 2.023438 -3.539062 1.878906 -3.5625 1.734375 -3.5625 C 1.566406 -3.5625 1.4375 -3.519531 1.34375 -3.4375 C 1.25 -3.363281 1.203125 -3.265625 1.203125 -3.140625 C 1.203125 -3.054688 1.21875 -2.984375 1.25 -2.921875 C 1.289062 -2.867188 1.351562 -2.8125 1.4375 -2.75 C 1.519531 -2.695312 1.710938 -2.597656 2.015625 -2.453125 C 2.410156 -2.265625 2.679688 -2.070312 2.828125 -1.875 C 2.972656 -1.6875 3.046875 -1.457031 3.046875 -1.1875 Z M 3.046875 -1.1875 "/></g></g><g transform="translate(38.694236, 55.189986)"><g><path d="M 2.984375 0 L 0.53125 0 L 0.53125 -4.265625 L 2.984375 -4.265625 L 2.984375 -3.515625 L 1.4375 -3.515625 L 1.4375 -2.578125 L 2.875 -2.578125 L 2.875 -1.84375 L 1.4375 -1.84375 L 1.4375 -0.75 L 2.984375 -0.75 Z M 2.984375 0 "/></g></g><g transform="translate(42.03758, 55.189986)"><g><path d="M 4 -4.265625 L 4 -1.5 C 4 -1.1875 3.925781 -0.910156 3.78125 -0.671875 C 3.644531 -0.441406 3.441406 -0.257812 3.171875 -0.125 C 2.910156 0 2.597656 0.0625 2.234375 0.0625 C 1.691406 0.0625 1.265625 -0.078125 0.953125 -0.359375 C 0.648438 -0.640625 0.5 -1.023438 0.5 -1.515625 L 0.5 -4.265625 L 1.40625 -4.265625 L 1.40625 -1.65625 C 1.40625 -1.320312 1.46875 -1.078125 1.59375 -0.921875 C 1.726562 -0.773438 1.953125 -0.703125 2.265625 -0.703125 C 2.554688 -0.703125 2.769531 -0.773438 2.90625 -0.921875 C 3.039062 -1.078125 3.109375 -1.320312 3.109375 -1.65625 L 3.109375 -4.265625 Z M 4 -4.265625 "/></g></g><g transform="translate(46.549782, 55.189986)"><g><path d="M 0.53125 0 L 0.53125 -4.265625 L 1.4375 -4.265625 L 1.4375 -0.75 L 3.171875 -0.75 L 3.171875 0 Z M 0.53125 0 "/></g></g><g transform="translate(49.922275, 55.189986)"><g><path d="M 2.984375 0 L 0.53125 0 L 0.53125 -4.265625 L 2.984375 -4.265625 L 2.984375 -3.515625 L 1.4375 -3.515625 L 1.4375 -2.578125 L 2.875 -2.578125 L 2.875 -1.84375 L 1.4375 -1.84375 L 1.4375 -0.75 L 2.984375 -0.75 Z M 2.984375 0 "/></g></g></g><g fill="#ffffff" fill-opacity="1"><g transform="translate(32.849943, 61.159618)"><g><path d="M 2.984375 0 L 0.53125 0 L 0.53125 -4.265625 L 2.984375 -4.265625 L 2.984375 -3.515625 L 1.4375 -3.515625 L 1.4375 -2.578125 L 2.875 -2.578125 L 2.875 -1.84375 L 1.4375 -1.84375 L 1.4375 -0.75 L 2.984375 -0.75 Z M 2.984375 0 "/></g></g><g transform="translate(36.193287, 61.159618)"><g><path d="M 2.1875 0 L 1.28125 0 L 1.28125 -3.515625 L 0.125 -3.515625 L 0.125 -4.265625 L 3.34375 -4.265625 L 3.34375 -3.515625 L 2.1875 -3.515625 Z M 2.1875 0 "/></g></g><g transform="translate(39.65031, 61.159618)"><g><path d="M 3.140625 0 L 2.828125 -1.015625 L 1.28125 -1.015625 L 0.96875 0 L 0 0 L 1.5 -4.28125 L 2.609375 -4.28125 L 4.125 0 Z M 2.625 -1.765625 C 2.332031 -2.691406 2.164062 -3.210938 2.125 -3.328125 C 2.09375 -3.453125 2.070312 -3.546875 2.0625 -3.609375 C 2 -3.367188 1.816406 -2.753906 1.515625 -1.765625 Z M 2.625 -1.765625 "/></g></g><g transform="translate(43.769006, 61.159618)"><g><path d="M 1.4375 -2.25 L 1.734375 -2.25 C 2.015625 -2.25 2.222656 -2.300781 2.359375 -2.40625 C 2.492188 -2.519531 2.5625 -2.6875 2.5625 -2.90625 C 2.5625 -3.113281 2.503906 -3.265625 2.390625 -3.359375 C 2.273438 -3.460938 2.09375 -3.515625 1.84375 -3.515625 L 1.4375 -3.515625 Z M 3.484375 -2.9375 C 3.484375 -2.476562 3.335938 -2.125 3.046875 -1.875 C 2.765625 -1.632812 2.359375 -1.515625 1.828125 -1.515625 L 1.4375 -1.515625 L 1.4375 0 L 0.53125 0 L 0.53125 -4.265625 L 1.890625 -4.265625 C 2.410156 -4.265625 2.804688 -4.148438 3.078125 -3.921875 C 3.347656 -3.703125 3.484375 -3.375 3.484375 -2.9375 Z M 3.484375 -2.9375 "/></g></g><g transform="translate(47.517516, 61.159618)"><g><path d="M 2.984375 0 L 0.53125 0 L 0.53125 -4.265625 L 2.984375 -4.265625 L 2.984375 -3.515625 L 1.4375 -3.515625 L 1.4375 -2.578125 L 2.875 -2.578125 L 2.875 -1.84375 L 1.4375 -1.84375 L 1.4375 -0.75 L 2.984375 -0.75 Z M 2.984375 0 "/></g></g></g></svg>