<svg xmlns="http://www.w3.org/2000/svg" xmlns:xlink="http://www.w3.org/1999/xlink" width="120" zoomAndPan="magnify" viewBox="0 0 90 89.999999" height="120" preserveAspectRatio="xMidYMid meet" version="1.0"><defs><g/><clipPath id="55dfec9bfe"><path d="M 25 20 L 66.75 20 L 66.75 70 L 25 70 Z M 25 20 " clip-rule="nonzero"/></clipPath><clipPath id="44b4be1de6"><path d="M 43 13.5 L 57 13.5 L 57 21 L 43 21 Z M 43 13.5 " clip-rule="nonzero"/></clipPath><clipPath id="da02b98e0e"><path d="M 42.074219 51 L 55.574219 51 L 55.574219 57.75 L 42.074219 57.75 Z M 42.074219 51 " clip-rule="nonzero"/></clipPath><clipPath id="4d8b526b5d"><path d="M 53.246094 51 L 66.746094 51 L 66.746094 57.75 L 53.246094 57.75 Z M 53.246094 51 " clip-rule="nonzero"/></clipPath></defs><path fill="#ffffff" d="M 52.082031 47.875 L 52.082031 50.484375 L 42.070312 50.484375 C 42.195312 49.523438 42.523438 48.558594 43.054688 47.714844 C 43.589844 46.832031 44.65625 45.664062 46.257812 44.21875 C 47.527344 43.054688 48.347656 42.25 48.636719 41.847656 C 49.046875 41.285156 49.210938 40.683594 49.210938 40.121094 C 49.210938 39.519531 49.046875 39.039062 48.71875 38.675781 C 48.390625 38.355469 47.898438 38.195312 47.324219 38.195312 C 46.707031 38.195312 46.257812 38.355469 45.886719 38.714844 C 45.519531 39.078125 45.3125 39.640625 45.273438 40.484375 L 42.441406 40.203125 C 42.605469 38.675781 43.136719 37.550781 44.042969 36.90625 C 44.945312 36.226562 46.050781 35.902344 47.40625 35.902344 C 48.882812 35.902344 50.03125 36.304688 50.851562 37.070312 C 51.671875 37.832031 52.125 38.796875 52.125 39.960938 C 52.125 40.605469 52 41.246094 51.753906 41.847656 C 51.507812 42.453125 51.136719 43.054688 50.605469 43.695312 C 50.277344 44.140625 49.621094 44.742188 48.757812 45.542969 C 47.855469 46.347656 47.28125 46.871094 47.035156 47.152344 C 46.789062 47.433594 46.585938 47.675781 46.460938 47.914062 L 52.082031 47.914062 Z M 52.082031 47.875 " fill-opacity="1" fill-rule="nonzero"/><path fill="#ffffff" d="M 59.589844 50.445312 L 59.589844 47.511719 L 53.519531 47.511719 L 53.519531 45.0625 L 59.960938 35.824219 L 62.339844 35.824219 L 62.339844 45.0625 L 64.183594 45.0625 L 64.183594 47.511719 L 62.339844 47.511719 L 62.339844 50.445312 Z M 59.589844 45.0625 L 59.589844 40.082031 L 56.183594 45.0625 Z M 59.589844 45.0625 " fill-opacity="1" fill-rule="nonzero"/><path fill="#ffffff" d="M 42.53125 56.59375 L 42.53125 51.414062 L 43.597656 51.414062 L 43.597656 53.453125 L 45.679688 53.453125 L 45.679688 51.414062 L 46.742188 51.414062 L 46.742188 56.59375 L 45.679688 56.59375 L 45.679688 54.324219 L 43.597656 54.324219 L 43.597656 56.59375 Z M 42.53125 56.59375 " fill-opacity="1" fill-rule="nonzero"/><path fill="#ffffff" d="M 47.632812 54.039062 C 47.632812 53.511719 47.71875 53.070312 47.878906 52.714844 C 47.996094 52.457031 48.15625 52.214844 48.375 52 C 48.582031 51.785156 48.8125 51.628906 49.0625 51.527344 C 49.394531 51.386719 49.773438 51.328125 50.199219 51.328125 C 50.96875 51.328125 51.597656 51.570312 52.0625 52.042969 C 52.527344 52.511719 52.761719 53.167969 52.761719 54.011719 C 52.761719 54.851562 52.527344 55.496094 52.0625 55.964844 C 51.597656 56.4375 50.984375 56.679688 50.199219 56.679688 C 49.410156 56.679688 48.785156 56.453125 48.316406 55.980469 C 47.867188 55.507812 47.632812 54.851562 47.632812 54.039062 Z M 48.742188 53.996094 C 48.742188 54.582031 48.871094 55.023438 49.148438 55.324219 C 49.425781 55.625 49.773438 55.78125 50.199219 55.78125 C 50.621094 55.78125 50.96875 55.625 51.246094 55.324219 C 51.523438 55.023438 51.65625 54.566406 51.65625 53.96875 C 51.65625 53.371094 51.523438 52.925781 51.261719 52.640625 C 51 52.355469 50.648438 52.199219 50.199219 52.199219 C 49.761719 52.199219 49.410156 52.34375 49.132812 52.640625 C 48.871094 52.957031 48.742188 53.398438 48.742188 53.996094 Z M 48.742188 53.996094 " fill-opacity="1" fill-rule="nonzero"/><path fill="#ffffff" d="M 53.59375 51.414062 L 54.65625 51.414062 L 54.65625 54.210938 C 54.65625 54.652344 54.671875 54.9375 54.699219 55.082031 C 54.742188 55.296875 54.859375 55.464844 55.019531 55.59375 C 55.195312 55.722656 55.429688 55.78125 55.71875 55.78125 C 56.027344 55.78125 56.246094 55.722656 56.40625 55.59375 C 56.566406 55.46875 56.652344 55.324219 56.683594 55.152344 C 56.710938 54.980469 56.726562 54.683594 56.726562 54.269531 L 56.726562 51.398438 L 57.789062 51.398438 L 57.789062 54.109375 C 57.789062 54.738281 57.761719 55.167969 57.703125 55.425781 C 57.644531 55.679688 57.542969 55.894531 57.382812 56.066406 C 57.222656 56.238281 57.015625 56.378906 56.753906 56.492188 C 56.492188 56.59375 56.15625 56.652344 55.734375 56.652344 C 55.226562 56.652344 54.847656 56.59375 54.582031 56.480469 C 54.320312 56.367188 54.117188 56.222656 53.972656 56.039062 C 53.824219 55.851562 53.722656 55.667969 53.664062 55.46875 C 53.59375 55.167969 53.5625 54.738281 53.5625 54.152344 L 53.5625 51.414062 Z M 53.59375 51.414062 " fill-opacity="1" fill-rule="nonzero"/><path fill="#ffffff" d="M 58.925781 56.59375 L 58.925781 51.414062 L 61.171875 51.414062 C 61.738281 51.414062 62.148438 51.457031 62.394531 51.558594 C 62.65625 51.65625 62.859375 51.8125 63.007812 52.058594 C 63.167969 52.300781 63.238281 52.570312 63.238281 52.871094 C 63.238281 53.253906 63.121094 53.582031 62.890625 53.824219 C 62.65625 54.082031 62.308594 54.238281 61.839844 54.296875 C 62.074219 54.425781 62.261719 54.566406 62.410156 54.726562 C 62.554688 54.882812 62.757812 55.167969 63.019531 55.566406 L 63.664062 56.578125 L 62.378906 56.578125 L 61.609375 55.453125 C 61.332031 55.054688 61.140625 54.796875 61.039062 54.695312 C 60.9375 54.597656 60.835938 54.523438 60.71875 54.480469 C 60.601562 54.441406 60.425781 54.425781 60.179688 54.425781 L 59.960938 54.425781 L 59.960938 56.578125 L 58.925781 56.578125 Z M 59.988281 53.597656 L 60.777344 53.597656 C 61.285156 53.597656 61.609375 53.582031 61.738281 53.539062 C 61.871094 53.496094 61.972656 53.425781 62.042969 53.328125 C 62.117188 53.226562 62.148438 53.097656 62.148438 52.941406 C 62.148438 52.769531 62.101562 52.628906 62 52.511719 C 61.898438 52.398438 61.769531 52.34375 61.59375 52.3125 C 61.503906 52.300781 61.242188 52.300781 60.820312 52.300781 L 59.988281 52.300781 Z M 59.988281 53.597656 " fill-opacity="1" fill-rule="nonzero"/><g clip-path="url(#55dfec9bfe)"><path fill="#ffffff" d="M 58.511719 67.886719 C 58.601562 67.851562 58.710938 67.90625 58.746094 67.996094 C 58.765625 68.066406 58.800781 68.121094 58.800781 68.140625 C 57.511719 68.664062 56.1875 69.027344 54.808594 69.28125 C 53.464844 69.515625 52.085938 69.640625 50.652344 69.675781 C 43.96875 69.875 37.835938 67.324219 33.351562 63.054688 C 28.792969 58.710938 26.015625 52.578125 25.90625 45.808594 C 25.871094 38.988281 28.613281 32.800781 33.078125 28.292969 C 37.5625 23.769531 43.769531 20.984375 50.652344 20.949219 C 53.847656 20.929688 56.75 21.382812 59.382812 22.324219 C 61.996094 23.246094 64.355469 24.640625 66.535156 26.558594 C 66.664062 26.667969 66.734375 26.8125 66.734375 26.972656 C 66.734375 27.136719 66.679688 27.300781 66.570312 27.40625 C 66.246094 27.75 65.789062 28.242188 65.445312 28.621094 C 65.15625 28.929688 64.683594 28.945312 64.355469 28.675781 C 62.523438 27.082031 60.542969 25.90625 58.367188 25.109375 C 56.023438 24.257812 53.464844 23.859375 50.632812 23.84375 C 44.550781 23.824219 39.03125 26.269531 35.019531 30.210938 C 30.988281 34.195312 28.464844 39.695312 28.429688 45.773438 C 28.339844 51.925781 30.789062 57.5 34.746094 61.605469 C 38.777344 65.804688 44.371094 68.519531 50.632812 68.699219 C 52.011719 68.753906 53.375 68.71875 54.699219 68.59375 C 56.007812 68.5 57.277344 68.265625 58.511719 67.886719 Z M 58.511719 67.886719 " fill-opacity="1" fill-rule="evenodd"/></g><path fill="#ffffff" d="M 52.972656 26.25 C 53.121094 25.453125 53.863281 24.929688 54.664062 25.074219 C 55.460938 25.21875 55.988281 25.960938 55.84375 26.757812 L 55.296875 29.90625 C 55.152344 30.703125 54.410156 31.226562 53.609375 31.082031 C 52.8125 30.9375 52.285156 30.195312 52.429688 29.398438 Z M 52.972656 26.25 " fill-opacity="1" fill-rule="evenodd"/><path fill="#ffffff" d="M 61.632812 29.46875 C 62.171875 28.867188 63.082031 28.804688 63.6875 29.34375 C 64.292969 29.882812 64.355469 30.789062 63.816406 31.394531 L 61.703125 33.796875 C 61.164062 34.402344 60.253906 34.460938 59.648438 33.921875 C 59.042969 33.386719 58.980469 32.476562 59.519531 31.875 Z M 61.632812 29.46875 " fill-opacity="1" fill-rule="evenodd"/><path fill="#ffffff" d="M 43.1875 27.519531 C 42.957031 26.742188 43.386719 25.941406 44.164062 25.710938 C 44.941406 25.480469 45.746094 25.910156 45.976562 26.683594 L 46.914062 29.738281 C 47.144531 30.515625 46.714844 31.320312 45.9375 31.546875 C 45.160156 31.777344 44.355469 31.351562 44.125 30.574219 Z M 43.1875 27.519531 " fill-opacity="1" fill-rule="evenodd"/><path fill="#ffffff" d="M 34.394531 34.945312 C 33.722656 34.511719 33.515625 33.609375 33.964844 32.933594 C 34.410156 32.257812 35.300781 32.078125 35.972656 32.507812 L 38.457031 34.109375 C 39.132812 34.542969 39.335938 35.445312 38.890625 36.121094 C 38.441406 36.796875 37.554688 36.980469 36.882812 36.546875 Z M 34.394531 34.945312 " fill-opacity="1" fill-rule="evenodd"/><path fill="#ffffff" d="M 31.480469 45.003906 C 30.667969 44.957031 30.058594 44.28125 30.105469 43.472656 C 30.15625 42.664062 30.832031 42.054688 31.644531 42.105469 L 34.84375 42.273438 C 35.65625 42.320312 36.265625 42.996094 36.214844 43.804688 C 36.167969 44.613281 35.492188 45.222656 34.679688 45.171875 Z M 31.480469 45.003906 " fill-opacity="1" fill-rule="evenodd"/><path fill="#ffffff" d="M 33.535156 53.828125 C 32.769531 54.09375 31.941406 53.707031 31.675781 52.945312 C 31.40625 52.179688 31.792969 51.355469 32.558594 51.089844 L 35.574219 50.007812 C 36.34375 49.742188 37.167969 50.125 37.433594 50.890625 C 37.703125 51.652344 37.316406 52.476562 36.550781 52.742188 Z M 33.535156 53.828125 " fill-opacity="1" fill-rule="evenodd"/><path fill="#ffffff" d="M 38.964844 61.105469 C 38.367188 61.652344 37.453125 61.621094 36.90625 61.023438 C 36.355469 60.429688 36.386719 59.519531 36.984375 58.972656 L 39.328125 56.792969 C 39.925781 56.246094 40.835938 56.277344 41.386719 56.871094 C 41.933594 57.46875 41.90625 58.375 41.304688 58.921875 Z M 38.964844 61.105469 " fill-opacity="1" fill-rule="evenodd"/><path fill="#ffffff" d="M 47.8125 65.753906 C 47.582031 66.515625 46.769531 66.957031 46.007812 66.742188 C 45.230469 66.507812 44.785156 65.710938 45.015625 64.949219 L 46.035156 61.460938 C 46.265625 60.703125 47.078125 60.261719 47.839844 60.472656 C 48.617188 60.707031 49.058594 61.507812 48.828125 62.265625 Z M 47.8125 65.753906 " fill-opacity="1" fill-rule="evenodd"/><path fill="#ffffff" d="M 57.625 65.28125 C 57.710938 66.085938 57.148438 66.800781 56.339844 66.890625 C 55.535156 66.976562 54.816406 66.417969 54.730469 65.613281 L 54.351562 62.441406 C 54.261719 61.636719 54.824219 60.921875 55.632812 60.832031 C 56.441406 60.746094 57.15625 61.304688 57.246094 62.109375 Z M 57.625 65.28125 " fill-opacity="1" fill-rule="evenodd"/><path fill="#ffffff" d="M 40.320312 24.859375 C 40.320312 24.859375 31.285156 24.660156 26.742188 24.554688 C 26.636719 24.5625 26.5625 24.484375 26.554688 24.378906 C 26.550781 24.273438 26.628906 24.195312 26.726562 24.175781 C 32.191406 23.480469 44.539062 21.902344 44.539062 21.902344 Z M 40.320312 24.859375 " fill-opacity="1" fill-rule="evenodd"/><path fill="#ffffff" d="M 29.695312 35.042969 C 29.695312 35.042969 20.542969 34.507812 15.320312 34.210938 C 15.164062 34.207031 15.058594 34.082031 15.046875 33.933594 C 15.035156 33.789062 15.164062 33.65625 15.3125 33.648438 C 21.085938 33.050781 31.875 31.957031 31.875 31.957031 Z M 29.695312 35.042969 " fill-opacity="1" fill-rule="evenodd"/><path fill="#ffffff" d="M 27.128906 46.480469 C 27.128906 46.480469 15.273438 45.871094 9.386719 45.5625 C 9.253906 45.5625 9.148438 45.4375 9.148438 45.308594 C 9.144531 45.175781 9.246094 45.066406 9.382812 45.039062 C 15.269531 44.410156 27.160156 43.140625 27.160156 43.140625 Z M 27.128906 46.480469 " fill-opacity="1" fill-rule="evenodd"/><path fill="#ffffff" d="M 29.5625 56.800781 C 29.5625 56.800781 20.023438 56.21875 14.957031 55.921875 C 14.800781 55.917969 14.683594 55.78125 14.675781 55.632812 C 14.664062 55.488281 14.78125 55.34375 14.929688 55.332031 C 19.78125 54.699219 28.652344 53.523438 28.652344 53.523438 Z M 29.5625 56.800781 " fill-opacity="1" fill-rule="evenodd"/><path fill="#ffffff" d="M 35.878906 64.007812 C 35.878906 64.007812 27.734375 63.800781 23.3125 63.679688 C 23.195312 63.671875 23.097656 63.585938 23.078125 63.464844 C 23.0625 63.34375 23.164062 63.234375 23.285156 63.21875 C 27.183594 62.664062 33.828125 61.699219 33.828125 61.699219 Z M 35.878906 64.007812 " fill-opacity="1" fill-rule="evenodd"/><path fill="#ffffff" d="M 48.289062 69.601562 C 48.289062 69.601562 38.265625 69.175781 33.054688 68.953125 C 32.964844 68.949219 32.886719 68.871094 32.882812 68.765625 C 32.875 68.660156 32.957031 68.582031 33.0625 68.578125 C 36.976562 68.273438 43.242188 67.785156 43.242188 67.785156 Z M 48.289062 69.601562 " fill-opacity="1" fill-rule="evenodd"/><g clip-path="url(#44b4be1de6)"><path fill="#ffffff" d="M 56.804688 16.242188 L 56.792969 17.457031 C 56.792969 17.808594 56.730469 18.144531 56.59375 18.46875 C 56.457031 18.78125 56.269531 19.074219 56.019531 19.320312 C 55.769531 19.566406 55.484375 19.761719 55.160156 19.886719 C 54.847656 20.015625 54.496094 20.09375 54.148438 20.085938 L 46.628906 20.066406 C 45.84375 20.066406 45.121094 19.75 44.609375 19.230469 C 44.097656 18.710938 43.769531 18.007812 43.769531 17.210938 L 43.769531 16.203125 C 43.769531 15.46875 44.070312 14.800781 44.558594 14.320312 C 45.042969 13.839844 45.707031 13.539062 46.441406 13.539062 L 54.046875 13.488281 C 54.410156 13.488281 54.769531 13.566406 55.097656 13.695312 C 55.433594 13.832031 55.734375 14.039062 55.996094 14.292969 C 56.257812 14.546875 56.457031 14.851562 56.59375 15.183594 C 56.730469 15.515625 56.804688 15.878906 56.804688 16.242188 Z M 54.246094 16.242188 C 54.246094 16.195312 54.222656 16.144531 54.183594 16.105469 C 54.148438 16.066406 54.097656 16.046875 54.046875 16.046875 L 46.441406 16.046875 C 46.355469 16.046875 46.292969 16.113281 46.292969 16.203125 L 46.292969 17.210938 C 46.292969 17.398438 46.441406 17.554688 46.628906 17.554688 L 54.148438 17.554688 C 54.171875 17.554688 54.195312 17.546875 54.210938 17.527344 C 54.222656 17.507812 54.234375 17.488281 54.234375 17.457031 Z M 54.246094 16.242188 " fill-opacity="1" fill-rule="evenodd"/></g><path fill="#ffffff" d="M 53.390625 20.125 L 53.371094 21.015625 L 53.296875 23.320312 L 49.316406 23.171875 L 47.199219 23.171875 L 47.222656 20.132812 L 47.222656 18.046875 L 51.03125 17.757812 L 53.371094 17.945312 Z M 49.316406 20.125 L 49.316406 21.054688 L 49.589844 21.054688 L 50.03125 21.496094 L 50.476562 21.054688 L 51.023438 21.054688 L 51.023438 20.125 L 50.597656 19.375 L 49.710938 19.652344 Z M 49.316406 20.125 " fill-opacity="1" fill-rule="evenodd"/><g clip-path="url(#da02b98e0e)"><path fill="#098ea6" d="M 55.300781 57.746094 L 42.34375 57.746094 C 42.195312 57.746094 42.074219 57.625 42.074219 57.472656 L 42.074219 51.277344 C 42.074219 51.128906 42.195312 51.003906 42.34375 51.003906 L 55.300781 51.003906 C 55.453125 51.003906 55.574219 51.128906 55.574219 51.277344 L 55.574219 57.472656 C 55.574219 57.625 55.453125 57.746094 55.300781 57.746094 Z M 55.300781 57.746094 " fill-opacity="1" fill-rule="nonzero"/></g><g clip-path="url(#4d8b526b5d)"><path fill="#098ea6" d="M 66.476562 57.746094 L 53.519531 57.746094 C 53.367188 57.746094 53.246094 57.625 53.246094 57.472656 L 53.246094 51.277344 C 53.246094 51.128906 53.367188 51.003906 53.519531 51.003906 L 66.476562 51.003906 C 66.625 51.003906 66.746094 51.128906 66.746094 51.277344 L 66.746094 57.472656 C 66.746094 57.625 66.625 57.746094 66.476562 57.746094 Z M 66.476562 57.746094 " fill-opacity="1" fill-rule="nonzero"/></g><g fill="#ffffff" fill-opacity="1"><g transform="translate(42.073124, 56.057688)"><g><path d="M 3.59375 0 L 2.796875 0 L 2.796875 -1.640625 L 1.28125 -1.640625 L 1.28125 0 L 0.484375 0 L 0.484375 -3.796875 L 1.28125 -3.796875 L 1.28125 -2.3125 L 2.796875 -2.3125 L 2.796875 -3.796875 L 3.59375 -3.796875 Z M 3.59375 0 "/></g></g></g><g fill="#ffffff" fill-opacity="1"><g transform="translate(46.145033, 56.057688)"><g><path d="M 2.671875 0 L 0.484375 0 L 0.484375 -3.796875 L 2.671875 -3.796875 L 2.671875 -3.140625 L 1.28125 -3.140625 L 1.28125 -2.3125 L 2.578125 -2.3125 L 2.578125 -1.640625 L 1.28125 -1.640625 L 1.28125 -0.671875 L 2.671875 -0.671875 Z M 2.671875 0 "/></g></g></g><g fill="#ffffff" fill-opacity="1"><g transform="translate(49.125558, 56.057688)"><g><path d="M 3.578125 -3.796875 L 3.578125 -1.34375 C 3.578125 -1.0625 3.515625 -0.8125 3.390625 -0.59375 C 3.265625 -0.382812 3.082031 -0.222656 2.84375 -0.109375 C 2.601562 -0.00390625 2.320312 0.046875 2 0.046875 C 1.507812 0.046875 1.128906 -0.078125 0.859375 -0.328125 C 0.585938 -0.578125 0.453125 -0.921875 0.453125 -1.359375 L 0.453125 -3.796875 L 1.25 -3.796875 L 1.25 -1.46875 C 1.25 -1.175781 1.304688 -0.960938 1.421875 -0.828125 C 1.546875 -0.691406 1.742188 -0.625 2.015625 -0.625 C 2.285156 -0.625 2.476562 -0.691406 2.59375 -0.828125 C 2.707031 -0.960938 2.765625 -1.179688 2.765625 -1.484375 L 2.765625 -3.796875 Z M 3.578125 -3.796875 "/></g></g></g><g fill="#ffffff" fill-opacity="1"><g transform="translate(53.148092, 56.057688)"><g><path d="M 1.28125 -2.109375 L 1.546875 -2.109375 C 1.796875 -2.109375 1.984375 -2.148438 2.109375 -2.234375 C 2.234375 -2.328125 2.296875 -2.460938 2.296875 -2.640625 C 2.296875 -2.816406 2.234375 -2.941406 2.109375 -3.015625 C 1.984375 -3.097656 1.789062 -3.140625 1.53125 -3.140625 L 1.28125 -3.140625 Z M 1.28125 -1.453125 L 1.28125 0 L 0.484375 0 L 0.484375 -3.796875 L 1.59375 -3.796875 C 2.101562 -3.796875 2.484375 -3.703125 2.734375 -3.515625 C 2.984375 -3.328125 3.109375 -3.046875 3.109375 -2.671875 C 3.109375 -2.441406 3.046875 -2.238281 2.921875 -2.0625 C 2.796875 -1.894531 2.625 -1.757812 2.40625 -1.65625 C 2.96875 -0.800781 3.335938 -0.25 3.515625 0 L 2.625 0 L 1.71875 -1.453125 Z M 1.28125 -1.453125 "/></g></g></g><g fill="#ffffff" fill-opacity="1"><g transform="translate(56.661313, 56.057688)"><g><path d="M 2.671875 0 L 0.484375 0 L 0.484375 -3.796875 L 2.671875 -3.796875 L 2.671875 -3.140625 L 1.28125 -3.140625 L 1.28125 -2.3125 L 2.578125 -2.3125 L 2.578125 -1.640625 L 1.28125 -1.640625 L 1.28125 -0.671875 L 2.671875 -0.671875 Z M 2.671875 0 "/></g></g></g><g fill="#ffffff" fill-opacity="1"><g transform="translate(59.641837, 56.057688)"><g><path d="M 2.71875 -1.0625 C 2.71875 -0.71875 2.59375 -0.445312 2.34375 -0.25 C 2.101562 -0.0507812 1.765625 0.046875 1.328125 0.046875 C 0.921875 0.046875 0.5625 -0.0234375 0.25 -0.171875 L 0.25 -0.921875 C 0.5 -0.804688 0.710938 -0.722656 0.890625 -0.671875 C 1.066406 -0.628906 1.234375 -0.609375 1.390625 -0.609375 C 1.566406 -0.609375 1.703125 -0.640625 1.796875 -0.703125 C 1.890625 -0.773438 1.9375 -0.878906 1.9375 -1.015625 C 1.9375 -1.085938 1.914062 -1.148438 1.875 -1.203125 C 1.832031 -1.265625 1.769531 -1.320312 1.6875 -1.375 C 1.601562 -1.4375 1.4375 -1.523438 1.1875 -1.640625 C 0.957031 -1.753906 0.785156 -1.859375 0.671875 -1.953125 C 0.554688 -2.054688 0.460938 -2.175781 0.390625 -2.3125 C 0.316406 -2.445312 0.28125 -2.601562 0.28125 -2.78125 C 0.28125 -3.113281 0.394531 -3.375 0.625 -3.5625 C 0.851562 -3.757812 1.171875 -3.859375 1.578125 -3.859375 C 1.773438 -3.859375 1.960938 -3.832031 2.140625 -3.78125 C 2.316406 -3.738281 2.503906 -3.675781 2.703125 -3.59375 L 2.453125 -2.96875 C 2.242188 -3.050781 2.070312 -3.109375 1.9375 -3.140625 C 1.8125 -3.171875 1.679688 -3.1875 1.546875 -3.1875 C 1.398438 -3.1875 1.285156 -3.148438 1.203125 -3.078125 C 1.117188 -3.003906 1.078125 -2.910156 1.078125 -2.796875 C 1.078125 -2.722656 1.09375 -2.660156 1.125 -2.609375 C 1.15625 -2.554688 1.207031 -2.503906 1.28125 -2.453125 C 1.351562 -2.410156 1.523438 -2.328125 1.796875 -2.203125 C 2.148438 -2.023438 2.390625 -1.847656 2.515625 -1.671875 C 2.648438 -1.503906 2.71875 -1.300781 2.71875 -1.0625 Z M 2.71875 -1.0625 "/></g></g></g></svg>